<?xml version="1.0" encoding="UTF-8"?>
<svg id="Layer_1" xmlns="http://www.w3.org/2000/svg" xmlns:xlink="http://www.w3.org/1999/xlink" version="1.1" viewBox="0 0 625.22 239.13">
  <!-- Generator: Adobe Illustrator 30.2.1, SVG Export Plug-In . SVG Version: 2.1.1 Build 1)  -->
  <defs>
    <style>
      .st0 {
        fill: url(#linear-gradient2);
      }

      .st1 {
        fill: url(#linear-gradient1);
      }

      .st2 {
        fill: url(#linear-gradient9);
      }

      .st3 {
        fill: url(#linear-gradient3);
      }

      .st4 {
        fill: url(#linear-gradient6);
      }

      .st5 {
        fill: url(#linear-gradient8);
      }

      .st6 {
        fill: url(#linear-gradient7);
      }

      .st7 {
        fill: url(#linear-gradient5);
      }

      .st8 {
        fill: url(#linear-gradient4);
      }

      .st9 {
        fill: url(#linear-gradient13);
      }

      .st10 {
        fill: url(#linear-gradient12);
      }

      .st11 {
        fill: url(#linear-gradient11);
      }

      .st12 {
        fill: url(#linear-gradient10);
      }

      .st13 {
        fill: url(#radial-gradient);
      }

      .st14 {
        fill: url(#linear-gradient);
      }

      .st15 {
        stroke: url(#linear-gradient14);
      }

      .st15, .st16 {
        fill: none;
        stroke-linecap: round;
        stroke-linejoin: round;
        stroke-width: 3px;
      }

      .st16 {
        stroke: url(#linear-gradient15);
      }

      .st17 {
        fill: url(#radial-gradient1);
      }

      .st18 {
        fill: url(#radial-gradient3);
      }

      .st19 {
        fill: url(#radial-gradient2);
      }

      .st20 {
        fill: #000d3f;
      }
    </style>
    <linearGradient id="linear-gradient" x1="247.26" y1="68.54" x2="247.26" y2="105.07" gradientUnits="userSpaceOnUse">
      <stop offset="0" stop-color="#0097ff"/>
      <stop offset="1" stop-color="#0031a8"/>
    </linearGradient>
    <linearGradient id="linear-gradient1" x1="492.68" y1="68.54" x2="492.68" y2="105.07" xlink:href="#linear-gradient"/>
    <linearGradient id="linear-gradient2" x1="297.39" y1="69.37" x2="295.39" y2="120.06" xlink:href="#linear-gradient"/>
    <linearGradient id="linear-gradient3" x1="302.18" y1="69.56" x2="300.18" y2="120.25" xlink:href="#linear-gradient"/>
    <linearGradient id="linear-gradient4" x1="303.43" y1="69.61" x2="301.43" y2="120.3" xlink:href="#linear-gradient"/>
    <linearGradient id="linear-gradient5" x1="306.89" y1="69.75" x2="304.89" y2="120.44" xlink:href="#linear-gradient"/>
    <linearGradient id="linear-gradient6" x1="311.04" y1="69.91" x2="309.04" y2="120.6" xlink:href="#linear-gradient"/>
    <linearGradient id="linear-gradient7" x1="354.65" y1="68.54" x2="354.65" y2="105.07" xlink:href="#linear-gradient"/>
    <linearGradient id="linear-gradient8" x1="403.81" y1="68.54" x2="403.81" y2="105.07" xlink:href="#linear-gradient"/>
    <linearGradient id="linear-gradient9" x1="449.07" y1="68.54" x2="449.07" y2="105.07" xlink:href="#linear-gradient"/>
    <linearGradient id="linear-gradient10" x1="539.8" y1="68.54" x2="539.8" y2="105.07" xlink:href="#linear-gradient"/>
    <radialGradient id="radial-gradient" cx="274.87" cy="113.06" fx="274.87" fy="113.06" r="742.89" gradientUnits="userSpaceOnUse">
      <stop offset="0" stop-color="#47d1ff"/>
      <stop offset=".46" stop-color="#0068d7"/>
      <stop offset="1" stop-color="#0031a8"/>
    </radialGradient>
    <radialGradient id="radial-gradient1" cx="274.87" cy="113.06" fx="274.87" fy="113.06" r="742.89" xlink:href="#radial-gradient"/>
    <radialGradient id="radial-gradient2" cx="274.87" cy="113.06" fx="274.87" fy="113.06" r="742.89" xlink:href="#radial-gradient"/>
    <radialGradient id="radial-gradient3" cx="274.87" fx="274.87" r="742.89" xlink:href="#radial-gradient"/>
    <linearGradient id="linear-gradient11" x1="357.06" y1="132.11" x2="354.99" y2="157.57" xlink:href="#linear-gradient"/>
    <linearGradient id="linear-gradient12" x1="357.22" y1="132.12" x2="355.16" y2="157.58" xlink:href="#linear-gradient"/>
    <linearGradient id="linear-gradient13" x1="357.49" y1="132.15" x2="355.43" y2="157.6" xlink:href="#linear-gradient"/>
    <linearGradient id="linear-gradient14" x1="393.96" y1="146.55" x2="430.13" y2="146.55" xlink:href="#linear-gradient"/>
    <linearGradient id="linear-gradient15" x1="173.15" y1="146.55" x2="209.32" y2="146.55" xlink:href="#linear-gradient"/>
  </defs>
  <polygon class="st20" points="67.18 71.08 65.68 80.3 78.71 80.3 73.18 114.1 85.17 114.1 91.06 80.07 104.43 80.07 106.17 71.08 67.18 71.08"/>
  <polygon class="st20" points="145.61 71.08 110.66 71.08 103.28 114.1 139.38 114.1 141 104.87 116.43 104.87 118.05 95.99 139.38 95.99 140.77 87.8 119.54 87.8 120.81 80.19 144 80.19 145.61 71.08"/>
  <polygon class="st20" points="224.39 71.08 189.44 71.08 182.06 114.1 218.16 114.1 219.78 104.87 195.21 104.87 196.82 95.99 218.16 95.99 219.55 87.8 198.32 87.8 199.59 80.19 222.77 80.19 224.39 71.08"/>
  <path class="st20" d="M151.96,71.08l-7.27,43.02h33.22l1.61-9.69h-20.65l5.65-33.33s-12.46-.12-12.57,0Z"/>
  <path class="st14" d="M270.17,72.15l-4.6,9.39s-22.74-8.01-27.53,10.5c0,0-2.58,11.33,10.59,12.8,0,0,7,1.2,13.72-2.58l4.79,8.47s-12.98,5.35-25.04,3.37c-12.06-1.99-16.48-11.29-16.48-11.29,0,0-4.97-12.71,4.88-22.19,0,0,5.98-9.02,22.01-10.13,0,0,7.09-.74,17.68,1.66Z"/>
  <path class="st1" d="M515.59,72.15l-4.6,9.39s-22.74-8.01-27.53,10.5c0,0-2.58,11.33,10.59,12.8,0,0,7,1.2,13.72-2.58l4.79,8.47s-12.98,5.35-25.04,3.37c-12.06-1.99-16.48-11.29-16.48-11.29,0,0-4.97-12.71,4.88-22.19,0,0,5.98-9.02,22.01-10.13,0,0,7.09-.74,17.68,1.66Z"/>
  <path class="st0" d="M271.92,90.93s.64-16.3,20.44-24.03c0,0,16.57-4.79,29.46,7.18l-8.84,6.35s-7-8.29-20.26-3.04c0,0-7.64,2.95-9.12,13.54,0,0-11.79.09-11.69,0Z"/>
  <path class="st3" d="M331.02,71.25c-.15.34-2,4.33-8.69,10.38-2.87,2.6-6.64,5.6-11.55,8.84-12.67,8.38-29.68,10.25-37.32,10.66-.62-1.91-1.03-3.91-1.19-5.99,8.81-.28,15.4-1.34,15.4-1.34,14.01-1.75,25.83-8.51,33.57-14.19,5.98-4.37,9.54-8.11,9.78-8.35Z"/>
  <path class="st8" d="M329.82,81.28c-1.34,2.66-3.25,5.17-5.28,7.39-4.93,5.38-10.55,9.07-10.55,9.07-17.14,10.6-33.18,11.02-36.61,10.97-.82-1.11-1.57-2.3-2.21-3.54,23.36-.94,40.52-11.98,48.9-18.72,3.58-2.87,5.55-4.96,5.75-5.17Z"/>
  <path class="st7" d="M329.84,89.18c-1.4,2.84-3.19,5.39-5.23,7.68-11.62,13.11-31.23,17.67-31.23,17.67-3.6.82-6.51.97-8.79.8-1.1-.67-2.13-1.43-3.11-2.27,3.97-.57,10.82-1.72,17.16-3.71,10.67-3.36,20.56-10.78,26.24-15.63,3.12-2.65,4.96-4.54,4.96-4.54Z"/>
  <path class="st4" d="M290.06,117.82s22.74-1.2,39.04-21.82c0,0-1.75,11.18-17.49,19.4,0,0-10.96,6.91-21.55,2.42Z"/>
  <polygon class="st6" points="329.83 113.77 335.82 71.69 346.22 71.69 363.63 96 367.31 71.23 379.46 71.23 372.93 114.23 363.07 114.23 345.03 88.17 341.34 114.23 329.83 113.77"/>
  <polygon class="st5" points="379 113.77 384.98 71.69 395.39 71.69 412.79 96 416.47 71.23 428.63 71.23 422.09 114.23 412.24 114.23 394.19 88.17 390.51 114.23 379 113.77"/>
  <polygon class="st2" points="470.44 71.23 434.62 71.23 427.71 114.23 463.53 114.23 464.91 105.02 441.16 105.02 442.54 96.09 463.07 96.09 464.36 88.08 443.83 88.08 444.93 80.62 468.96 80.62 470.44 71.23"/>
  <polygon class="st12" points="519.32 71.75 518.16 81.47 532.37 81.47 527.08 114.23 539.04 114.23 544.55 81.1 559.92 81.1 561.44 71.75 519.32 71.75"/>
  <path class="st13" d="M65.68,119.34c-6.49,8.68-19.95,24.48-10.94,34.86,12.56,13.74,40.53,19.18,58.54,22.34,43.35,6.74,87.63,6.97,131.44,5.54,36.69-1.33,73.34-4.52,109.86-8.63,0,0,.16,1.08.16,1.08-29.03,4.98-58.3,8.7-87.69,11.21-51.51,4.14-103.61,5.47-154.92-2.05-18.76-3.1-68.36-12.72-67.34-37.31.94-12,11.11-21.58,20.9-27.05h0Z"/>
  <path class="st17" d="M378.23,36.07c52.3-7.94,161.12-12.67,204.45,19.07,23.29,17.97,11.54,43.18-7.39,58.8-52.99,43.06-154.33,60.29-221.18,70.85-53.82,7.94-107.96,13.42-162.44,14.2-36.46.26-73.11-1.01-108.83-9.66-17.31-4.57-39.62-11.45-49.36-27.87-8.63-15.37,2.26-31.02,15.13-39.31,3.87-2.56,8.07-4.88,12.38-6.39-3.1,3.46-6.23,6.73-9.12,10.09-11.16,12.86-19.47,27.07-2.27,39.36,32.76,22.22,102.13,25.46,142.08,26.42,109.7,1.29,241.35-20.65,339.81-70.15,14.86-7.96,46.06-25.52,46.29-43.55-.52-6.92-9.84-12.05-15.82-15.15-23.53-10.92-50.04-14.89-75.97-18.46-35.45-4.47-71.47-6.03-107.69-7.04l-.07-1.21h0Z"/>
  <path class="st19" d="M46.87,119.4c-23.21,15.21-32.76,34.15-10.93,56.13,23.67,21.81,83.32,25.94,115.25,28.12,21.5,1.52,44.16,1.07,65.19,1.67-10.85.92-21.73,1.45-32.63,1.77-39.98.85-121.86.29-151.78-27.44-10.5-10.16-18.37-25.36-10.95-39.65,2.7-5.28,6.73-9.52,11.18-12.9,4.49-3.36,9.38-6.06,14.6-7.81l.06.12h0Z"/>
  <path class="st18" d="M526.83,30.54c29.74-.17,76.76,8.79,83.88,43.21,7.29,36.09-53.89,63.07-80.99,73.71-9.45,3.63-19.04,6.92-28.78,9.63,9.4-3.71,18.66-7.72,27.8-11.94,23.12-11.04,74.15-35.5,76.71-63.53.68-26.03-27.33-38.87-49.1-44.91-9.62-2.68-19.51-4.64-29.53-5.93v-.23h0Z"/>
  <g>
    <g>
      <polygon class="st20" points="222.93 136.52 219.99 155.52 225.08 155.52 228.47 136.52 222.93 136.52"/>
      <polygon class="st20" points="230.87 155.52 233.36 136.52 238.45 136.52 247.95 148.51 249.53 136.52 254.96 136.52 252.47 155.52 247.16 155.52 237.43 143.31 236.05 155.52 230.87 155.52"/>
      <path class="st20" d="M274.09,137.2l-12.67-.67-2.82,19h15.83s8.15-.9,8.71-9.5c.56-8.6-9.05-8.83-9.05-8.83ZM277.65,147.04c-.51,5.99-6.28,5.21-6.28,5.21h-6.78s1.57-11.09,1.57-11.43h6.23s5.76.23,5.27,6.23Z"/>
      <polygon class="st20" points="288.94 136.52 286.79 155.52 292 155.52 294.71 136.52 288.94 136.52"/>
      <path class="st20" d="M313.11,136.53h-4.62l-12.35,19c0,.12,5.35,0,5.35,0l2.57-4.07h9.95l1.7,4.07h5.99l-8.6-19ZM305.75,148.4l3.96-7.01,3.29,7.01h-7.24Z"/>
    </g>
    <g>
      <path class="st11" d="M356.2,149.14h-6.26l-.6,4.02h8.67s3.7.27,3.52-2.38c-.15-2.05-5.32-1.63-5.32-1.63Z"/>
      <path class="st10" d="M357.16,140.88h-6.26l-.6,4.02h8.67s3.29.53,3.26-2.13c-.02-2.31-5.07-1.89-5.07-1.89Z"/>
      <path class="st9" d="M334.3,132.49l-5.06,29.55h39.15c11.39.16,11.8-9.79,11.8-9.79l3.1-19.76h-48.99ZM363.78,147.12s4.46-.35,3.97,5.13c-.47,5.47-8.9,5.49-8.9,5.49h-16.37l3.25-21.21h16.85s5.66.25,5.81,4.86c.14,4.61-4.61,5.74-4.61,5.74Z"/>
    </g>
  </g>
  <line class="st15" x1="395.46" y1="146.55" x2="428.63" y2="146.55"/>
  <line class="st16" x1="174.65" y1="146.55" x2="207.82" y2="146.55"/>
</svg>