<?xml version="1.0" encoding="UTF-8"?>
<svg id="Layer_1" xmlns="http://www.w3.org/2000/svg" version="1.1" viewBox="0 0 625.22 239.13">
  <!-- Generator: Adobe Illustrator 30.2.1, SVG Export Plug-In . SVG Version: 2.1.1 Build 1)  -->
  <defs>
    <style>
      .st0 {
        fill: #fff;
      }
    </style>
  </defs>
  <polygon class="st0" points="65.08 71.89 63.58 81.12 76.62 81.12 71.08 114.91 83.07 114.91 88.96 80.89 102.34 80.89 104.07 71.89 65.08 71.89"/>
  <polygon class="st0" points="143.51 71.89 108.57 71.89 101.18 114.91 137.29 114.91 138.9 105.69 114.33 105.69 115.95 96.81 137.29 96.81 138.67 88.62 117.45 88.62 118.72 81 141.9 81 143.51 71.89"/>
  <polygon class="st0" points="222.29 71.89 187.34 71.89 179.96 114.91 216.06 114.91 217.68 105.69 193.11 105.69 194.73 96.81 216.06 96.81 217.45 88.62 196.22 88.62 197.49 81 220.68 81 222.29 71.89"/>
  <path class="st0" d="M149.86,71.89l-7.27,43.02h33.22l1.61-9.69h-20.65l5.65-33.33s-12.46-.12-12.57,0Z"/>
  <path class="st0" d="M268.07,72.97l-4.6,9.39s-22.74-8.01-27.53,10.5c0,0-2.58,11.33,10.59,12.8,0,0,7,1.2,13.72-2.58l4.79,8.47s-12.98,5.35-25.04,3.37c-12.06-1.99-16.48-11.29-16.48-11.29,0,0-4.97-12.71,4.88-22.19,0,0,5.98-9.02,22.01-10.13,0,0,7.09-.74,17.68,1.66Z"/>
  <path class="st0" d="M513.5,72.97l-4.6,9.39s-22.74-8.01-27.53,10.5c0,0-2.58,11.33,10.59,12.8,0,0,7,1.2,13.72-2.58l4.79,8.47s-12.98,5.35-25.04,3.37c-12.06-1.99-16.48-11.29-16.48-11.29,0,0-4.97-12.71,4.88-22.19,0,0,5.98-9.02,22.01-10.13,0,0,7.09-.74,17.68,1.66Z"/>
  <path class="st0" d="M269.82,91.75s.64-16.3,20.44-24.03c0,0,16.57-4.79,29.46,7.18l-8.84,6.35s-7-8.29-20.26-3.04c0,0-7.64,2.95-9.12,13.54,0,0-11.79.09-11.69,0Z"/>
  <path class="st0" d="M328.92,72.07c-.15.34-2,4.33-8.69,10.38-2.87,2.6-6.64,5.6-11.55,8.84-12.67,8.38-29.68,10.25-37.32,10.66-.62-1.91-1.03-3.91-1.19-5.99,8.81-.28,15.4-1.34,15.4-1.34,14.01-1.75,25.83-8.51,33.57-14.19,5.98-4.37,9.54-8.11,9.78-8.35Z"/>
  <path class="st0" d="M327.73,82.1c-1.34,2.66-3.25,5.17-5.28,7.39-4.93,5.38-10.55,9.07-10.55,9.07-17.14,10.6-33.18,11.02-36.61,10.97-.82-1.11-1.57-2.3-2.21-3.54,23.36-.94,40.52-11.98,48.9-18.72,3.58-2.87,5.55-4.96,5.75-5.17Z"/>
  <path class="st0" d="M327.74,90c-1.4,2.84-3.19,5.39-5.23,7.68-11.62,13.11-31.23,17.67-31.23,17.67-3.6.82-6.51.97-8.79.8-1.1-.67-2.13-1.43-3.11-2.27,3.97-.57,10.82-1.72,17.16-3.71,10.67-3.36,20.56-10.78,26.24-15.63,3.12-2.65,4.96-4.54,4.96-4.54Z"/>
  <path class="st0" d="M287.96,118.64s22.74-1.2,39.04-21.82c0,0-1.75,11.18-17.49,19.4,0,0-10.96,6.91-21.55,2.42Z"/>
  <polygon class="st0" points="327.74 114.59 333.72 72.51 344.13 72.51 361.53 96.81 365.21 72.05 377.37 72.05 370.83 115.05 360.98 115.05 342.93 88.99 339.25 115.05 327.74 114.59"/>
  <polygon class="st0" points="376.9 114.59 382.89 72.51 393.29 72.51 410.69 96.81 414.38 72.05 426.53 72.05 419.99 115.05 410.14 115.05 392.09 88.99 388.41 115.05 376.9 114.59"/>
  <polygon class="st0" points="468.34 72.05 432.52 72.05 425.61 115.05 461.43 115.05 462.81 105.84 439.06 105.84 440.44 96.91 460.97 96.91 462.26 88.9 441.73 88.9 442.83 81.44 466.86 81.44 468.34 72.05"/>
  <polygon class="st0" points="517.22 72.57 516.06 82.28 530.27 82.28 524.98 115.05 536.94 115.05 542.45 81.92 557.82 81.92 559.34 72.57 517.22 72.57"/>
  <path class="st0" d="M63.58,120.15c-6.49,8.68-19.95,24.48-10.94,34.86,12.56,13.74,40.53,19.18,58.54,22.34,43.35,6.74,87.63,6.97,131.44,5.54,36.69-1.33,73.34-4.52,109.86-8.63,0,0,.16,1.08.16,1.08-29.03,4.98-58.3,8.7-87.69,11.21-51.51,4.14-103.61,5.47-154.92-2.05-18.76-3.1-68.36-12.72-67.34-37.31.94-12,11.11-21.58,20.9-27.05h0Z"/>
  <path class="st0" d="M376.14,36.88c52.3-7.94,161.12-12.67,204.45,19.07,23.29,17.97,11.54,43.18-7.39,58.8-52.99,43.06-154.33,60.29-221.18,70.85-53.82,7.94-107.96,13.42-162.44,14.2-36.46.26-73.11-1.01-108.83-9.66-17.31-4.57-39.62-11.45-49.36-27.87-8.63-15.37,2.26-31.02,15.13-39.31,3.87-2.56,8.07-4.88,12.38-6.39-3.1,3.46-6.23,6.73-9.12,10.09-11.16,12.86-19.47,27.07-2.27,39.36,32.76,22.22,102.13,25.46,142.08,26.42,109.7,1.29,241.35-20.65,339.81-70.15,14.86-7.96,46.06-25.52,46.29-43.55-.52-6.92-9.84-12.05-15.82-15.15-23.53-10.92-50.04-14.89-75.97-18.46-35.45-4.47-71.47-6.03-107.69-7.04l-.07-1.21h0Z"/>
  <path class="st0" d="M44.77,120.22c-23.21,15.21-32.76,34.15-10.93,56.13,23.67,21.81,83.32,25.94,115.25,28.12,21.5,1.52,44.16,1.07,65.19,1.67-10.85.92-21.73,1.45-32.63,1.77-39.98.85-121.86.29-151.78-27.44-10.5-10.16-18.37-25.36-10.95-39.65,2.7-5.28,6.73-9.52,11.18-12.9,4.49-3.36,9.38-6.06,14.6-7.81l.06.12h0Z"/>
  <path class="st0" d="M524.73,31.35c29.74-.17,76.76,8.79,83.88,43.21,7.29,36.09-53.89,63.07-80.99,73.71-9.45,3.63-19.04,6.92-28.78,9.63,9.4-3.71,18.66-7.72,27.8-11.94,23.12-11.04,74.15-35.5,76.71-63.53.68-26.03-27.33-38.87-49.1-44.91-9.62-2.68-19.51-4.64-29.53-5.93v-.23h0Z"/>
  <g>
    <g>
      <polygon class="st0" points="220.83 137.34 217.89 156.34 222.98 156.34 226.37 137.34 220.83 137.34"/>
      <polygon class="st0" points="228.77 156.34 231.26 137.34 236.35 137.34 245.85 149.33 247.44 137.34 252.86 137.34 250.38 156.34 245.06 156.34 235.33 144.13 233.95 156.34 228.77 156.34"/>
      <path class="st0" d="M271.99,138.01l-12.67-.67-2.82,19h15.83s8.15-.9,8.71-9.5c.56-8.6-9.05-8.83-9.05-8.83ZM275.56,147.86c-.51,5.99-6.28,5.21-6.28,5.21h-6.78s1.57-11.09,1.57-11.43h6.23s5.76.23,5.27,6.23Z"/>
      <polygon class="st0" points="286.85 137.34 284.7 156.34 289.9 156.34 292.61 137.34 286.85 137.34"/>
      <path class="st0" d="M311.01,137.34h-4.62l-12.35,19c0,.12,5.35,0,5.35,0l2.57-4.07h9.95l1.7,4.07h5.99l-8.6-19ZM303.65,149.21l3.96-7.01,3.29,7.01h-7.24Z"/>
    </g>
    <g>
      <path class="st0" d="M354.1,149.95h-6.26l-.6,4.02h8.67s3.7.27,3.52-2.38c-.15-2.05-5.32-1.63-5.32-1.63Z"/>
      <path class="st0" d="M355.07,141.69h-6.26l-.6,4.02h8.67s3.29.53,3.26-2.13c-.02-2.31-5.07-1.89-5.07-1.89Z"/>
      <path class="st0" d="M332.2,133.3l-5.06,29.55h39.15c11.39.16,11.8-9.79,11.8-9.79l3.1-19.76h-48.99ZM361.68,147.94s4.46-.35,3.97,5.13c-.47,5.47-8.9,5.49-8.9,5.49h-16.37l3.25-21.21h16.85s5.66.25,5.81,4.86c.14,4.61-4.61,5.74-4.61,5.74Z"/>
    </g>
  </g>
  <g>
    <line class="st0" x1="393.36" y1="147.37" x2="426.53" y2="147.37"/>
    <path class="st0" d="M426.53,148.87h-33.17c-.83,0-1.5-.67-1.5-1.5s.67-1.5,1.5-1.5h33.17c.83,0,1.5.67,1.5,1.5s-.67,1.5-1.5,1.5Z"/>
  </g>
  <g>
    <line class="st0" x1="172.55" y1="147.37" x2="205.72" y2="147.37"/>
    <path class="st0" d="M205.72,148.87h-33.17c-.83,0-1.5-.67-1.5-1.5s.67-1.5,1.5-1.5h33.17c.83,0,1.5.67,1.5,1.5s-.67,1.5-1.5,1.5Z"/>
  </g>
</svg>